<?xml version="1.0" encoding="UTF-8"?>
<svg version="1.1" xmlns="http://www.w3.org/2000/svg" width="340" height="692">
<path d="M0 0 C112.2 0 224.4 0 340 0 C340 228.36 340 456.72 340 692 C227.8 692 115.6 692 0 692 C0 463.64 0 235.28 0 0 Z " fill="#FDFDFD" transform="translate(0,0)"/>
<path d="M0 0 C3.54898062 0.01860703 7.09770349 0.02050634 10.64672852 0.02026367 C12.92993389 0.02516889 15.21313752 0.03099281 17.49633789 0.0378418 C18.54422989 0.03895462 19.59212189 0.04006744 20.67176819 0.04121399 C25.86940161 0.07494394 30.78401669 0.41297297 35.92993164 1.20581055 C38.87034924 1.40805938 41.81255707 1.5023215 44.75805664 1.6003418 C46.46251856 1.66914552 48.16694492 1.7388351 49.87133789 1.80932617 C52.52140559 1.91621925 55.17120358 2.01802585 57.82202148 2.10449219 C70.01464938 2.5124282 82.02206459 3.00606853 91.95336914 11.05737305 C99.17154292 18.90321411 103.85380516 29.11067724 106.92993164 39.20581055 C107.54868164 41.03112305 107.54868164 41.03112305 108.17993164 42.89331055 C108.55118164 44.03799805 108.55118164 44.03799805 108.92993164 45.20581055 C109.58993164 45.20581055 110.24993164 45.20581055 110.92993164 45.20581055 C111.91993164 48.50581055 112.90993164 51.80581055 113.92993164 55.20581055 C114.58993164 55.20581055 115.24993164 55.20581055 115.92993164 55.20581055 C117.65384629 61.19437191 118.2483762 66.57566518 118.26586914 72.79174805 C118.27411209 73.71039139 118.28235504 74.62903473 118.29084778 75.57551575 C118.31012077 78.57743713 118.31001676 81.57883623 118.30493164 84.58081055 C118.30538483 85.60993561 118.30583801 86.63906067 118.30630493 87.69937134 C118.28664636 103.00452695 117.59651143 118.16019996 116.11743164 133.39331055 C116.03475037 134.26405212 115.95206909 135.1347937 115.86688232 136.03192139 C113.40627686 161.31276481 113.40627686 161.31276481 106.92993164 169.20581055 C105.71061968 172.82241382 104.78920227 176.48881413 103.92993164 180.20581055 C103.26993164 180.20581055 102.60993164 180.20581055 101.92993164 180.20581055 C100.6236269 185.9684806 101.40911565 189.72814455 103.86743164 194.95581055 C104.18010986 195.64884277 104.49278809 196.341875 104.81494141 197.0559082 C107.4216167 202.61381563 110.59883395 207.35915652 114.42602539 212.16674805 C115.92993164 214.20581055 115.92993164 214.20581055 115.92993164 216.20581055 C116.98180664 216.12331055 118.03368164 216.04081055 119.11743164 215.95581055 C123.62987304 216.25170834 124.85377773 216.96337805 127.92993164 220.20581055 C131.05420884 224.42256376 132.40075212 227.90908013 131.92993164 233.20581055 C131.92993164 240.39015831 134.58831625 245.82850679 138.30493164 251.89331055 C147.64957034 267.315924 149.5681352 283.46916467 147.92993164 301.20581055 C146.67174693 305.69534787 144.9442282 308.6880691 141.92993164 312.20581055 C141.26864258 313.04112305 140.60735352 313.87643555 139.92602539 314.73706055 C134.35008359 321.4239585 129.50956425 324.43051494 120.92993164 326.14331055 C120.13482178 326.30734375 119.33971191 326.47137695 118.52050781 326.64038086 C106.09701736 329.089985 93.48303383 330.590746 80.92993164 332.20581055 C80.64118164 333.01018555 80.35243164 333.81456055 80.05493164 334.64331055 C78.92993164 337.20581055 78.92993164 337.20581055 76.92993164 338.20581055 C75.2551414 345.73202841 74.49816048 353.50589143 74.92993164 361.20581055 C74.94797852 361.98827148 74.96602539 362.77073242 74.98461914 363.5769043 C75.3020825 369.26323335 76.60011168 371.30897258 80.92993164 375.20581055 C82.0370507 379.03711347 82.09484441 382.79747592 82.11743164 386.76831055 C82.13161133 387.88334961 82.14579102 388.99838867 82.16040039 390.1472168 C82.07698689 393.32502822 81.54905073 396.28101808 80.93383789 399.3972168 C79.5084745 407.52299553 79.63030609 415.64750622 79.66918945 423.87133789 C79.67999318 426.59633203 79.66919799 429.32067905 79.65649414 432.0456543 C79.65781447 433.79435365 79.66037424 435.54305261 79.66430664 437.29174805 C79.66025818 438.09808685 79.65620972 438.90442566 79.65203857 439.73519897 C79.68948985 444.25980388 80.09887544 447.98372477 81.92993164 452.20581055 C83.81280451 453.89908364 83.81280451 453.89908364 86.11743164 455.08081055 C90.30558818 457.64321303 93.07547232 460.41257236 96.16821289 464.19018555 C98.02971519 466.31997532 100.01331231 468.07792823 102.17993164 469.89331055 C106.61125036 473.70630573 108.73308209 476.13889024 109.30493164 482.14331055 C109.10852115 486.15461712 108.33591078 488.89758923 105.92993164 492.20581055 C97.55868056 497.82360377 88.83821729 498.57874198 79.00170898 498.57641602 C76.96257871 498.5807413 74.92570426 498.61697279 72.88696289 498.6550293 C60.74583161 498.76143356 48.4372657 497.20244161 39.20727539 488.6003418 C31.00146959 478.91127081 27.30786383 468.87190755 25.93774414 456.32299805 C25.80957558 455.15745644 25.80957558 455.15745644 25.67881775 453.96836853 C24.48699186 442.58871186 23.94601948 431.15328282 23.328125 419.73095703 C23.07467542 390.2348711 23.07467542 390.2348711 11.92993164 364.20581055 C8.3042935 363.87200241 8.3042935 363.87200241 4.92993164 364.20581055 C4.94080811 364.91108887 4.95168457 365.61636719 4.96289062 366.34301758 C5.01985975 373.00026727 4.74891003 379.56596571 4.27026367 386.2043457 C3.32091809 399.45013587 2.84395114 412.66081767 2.71508789 425.94018555 C2.7001765 427.33729128 2.68518702 428.73439618 2.67012024 430.13150024 C2.60444609 436.46170729 2.5515251 442.79130337 2.54173565 449.12186432 C2.53573687 451.14681037 2.52097778 453.17148063 2.50267029 455.1963501 C2.48081085 457.70256904 2.47387969 460.20897928 2.48451233 462.715271 C2.38971019 470.76110631 1.4632539 476.47058416 -4.25756836 482.51831055 C-11.45702369 486.83798374 -19.63517897 487.97099051 -27.82006836 489.20581055 C-34.18972921 490.19778725 -40.42235445 491.1933402 -46.63256836 492.95581055 C-52.70740556 494.45191389 -58.72000233 494.52835622 -64.94506836 494.58081055 C-65.93321533 494.59466797 -66.9213623 494.60852539 -67.93945312 494.62280273 C-73.70938894 494.58553622 -78.03492809 494.12811267 -83.07006836 491.20581055 C-83.56506836 489.72081055 -83.56506836 489.72081055 -84.07006836 488.20581055 C-84.73006836 488.20581055 -85.39006836 488.20581055 -86.07006836 488.20581055 C-86.89728813 480.26450078 -83.14688146 475.73209944 -78.38256836 469.70581055 C-77.61944336 468.88081055 -76.85631836 468.05581055 -76.07006836 467.20581055 C-75.41006836 467.20581055 -74.75006836 467.20581055 -74.07006836 467.20581055 C-73.74006836 466.21581055 -73.41006836 465.22581055 -73.07006836 464.20581055 C-71.84119689 463.09504571 -70.56302456 462.03797114 -69.25756836 461.01831055 C-65.06508307 457.49571968 -63.1823011 454.22236331 -61.07006836 449.20581055 C-60.41006836 449.20581055 -59.75006836 449.20581055 -59.07006836 449.20581055 C-58.57996401 445.21496083 -58.31336282 441.21758085 -58.07006836 437.20581055 C-58.00658203 436.29412109 -57.9430957 435.38243164 -57.87768555 434.44311523 C-56.44093744 421.53897349 -56.44093744 421.53897349 -60.00756836 409.57299805 C-62.23283844 407.18368563 -64.52957063 405.24187732 -67.07006836 403.20581055 C-69.34138456 399.929609 -69.53625364 397.13366949 -69.07006836 393.20581055 C-67.39038086 390.42456055 -67.39038086 390.42456055 -65.19506836 387.70581055 C-60.32144451 381.62688188 -58.80809561 376.8566222 -58.87475586 369.05737305 C-58.8790007 368.07128555 -58.8790007 368.07128555 -58.8833313 367.0652771 C-58.89443389 364.98692822 -58.91951849 362.90902688 -58.94506836 360.83081055 C-58.95511105 359.41284807 -58.96423463 357.99487876 -58.97241211 356.5769043 C-58.99434031 353.11973018 -59.02880018 349.66281412 -59.07006836 346.20581055 C-60.39006836 345.87581055 -61.71006836 345.54581055 -63.07006836 345.20581055 C-63.83865729 316.19975483 -64.21664864 287.22194082 -64.07006836 258.20581055 C-66.72236415 262.05396601 -68.56764287 264.94085336 -69.32006836 269.58081055 C-69.46959961 270.45479492 -69.61913086 271.3287793 -69.77319336 272.22924805 C-69.87116211 272.88151367 -69.96913086 273.5337793 -70.07006836 274.20581055 C-72.89912007 275.03352437 -74.40963782 275.16808061 -77.44506836 274.83081055 C-81.51115312 275.25144 -81.76863017 275.53529247 -84.19506836 278.51831055 C-84.68491211 279.15510742 -85.17475586 279.7919043 -85.67944336 280.44799805 C-87.58131762 282.85205259 -89.22529442 284.05435443 -92.07006836 285.20581055 C-99.78156658 285.81783422 -105.13389307 284.23027458 -111.38256836 279.51831055 C-112.79602539 278.45676758 -112.79602539 278.45676758 -114.23803711 277.3737793 C-115.17260742 276.65834961 -116.10717773 275.94291992 -117.07006836 275.20581055 C-117.95307617 274.54194336 -118.83608398 273.87807617 -119.74584961 273.1940918 C-126.83941426 267.79755218 -126.83941426 267.79755218 -127.46459961 263.4831543 C-127.6025293 262.38100586 -127.74045898 261.27885742 -127.88256836 260.14331055 C-128.62841559 255.06257681 -129.74524611 250.87137925 -132.07006836 246.3034668 C-138.01873106 233.8252173 -134.91146472 220.79528753 -131.07006836 208.20581055 C-130.71944336 207.04178711 -130.36881836 205.87776367 -130.00756836 204.6784668 C-126.74102205 194.7767483 -122.16176087 183.2263929 -115.33569336 175.1550293 C-113.44183007 172.23824603 -113.58235457 169.57907869 -113.44506836 166.14331055 C-113.14987489 159.44523014 -113.14987489 159.44523014 -112.07006836 156.20581055 C-111.81874316 151.01175636 -112.13780069 148.02216664 -114.07006836 143.20581055 C-114.47337869 141.15235467 -114.82654026 139.08850065 -115.13256836 137.01831055 C-115.66988396 132.97554517 -115.66988396 132.97554517 -117.07006836 129.20581055 C-120.59626655 107.48072097 -124.63207496 71.91551202 -113.10522461 52.0612793 C-111.85793833 49.82557748 -110.98160146 47.53474444 -110.07006836 45.14331055 C-108.89301272 42.12450902 -107.65342391 39.30938118 -106.00756836 36.51831055 C-104.01201394 33.26649527 -104.01201394 33.26649527 -102.63256836 29.83081055 C-101.41241446 27.00005349 -100.16506051 24.25709304 -98.75756836 21.51831055 C-98.39018555 20.79256836 -98.02280273 20.06682617 -97.64428711 19.3190918 C-90.17250574 9.28873517 -73.6136662 6.631064 -62.13256836 4.45581055 C-60.59209839 4.15815796 -60.59209839 4.15815796 -59.02050781 3.85449219 C-39.51220703 0.40612225 -19.76296395 -0.10729382 0 0 Z " fill="#080808" transform="translate(166.070068359375,171.794189453125)"/>
<path d="M0 0 C0.99383698 0.00021149 1.98767395 0.00042297 3.0116272 0.00064087 C19.46720462 0.03553697 35.29290162 0.95498673 51.4375 4.375 C52.30777832 4.55691895 53.17805664 4.73883789 54.07470703 4.92626953 C72.83598328 9.04029425 92.69918059 18.12359232 104.078125 34.234375 C119.28481628 58.18054403 109.58512922 94.57138873 104.4375 120.375 C96.10726175 156.74966805 96.10726175 156.74966805 88.0625 163.3125 C86.1616272 164.0819009 84.24196053 164.80539421 82.3125 165.5 C78.64881393 166.9814035 76.04049955 169.30460374 73.0625 171.875 C68.29613378 175.92937791 64.48597328 177.8876705 58.4375 179.375 C58.4375 180.035 58.4375 180.695 58.4375 181.375 C43.31277235 185.67179763 28.14114029 186.83582447 12.5 186.875 C11.31502426 186.88101227 11.31502426 186.88101227 10.10610962 186.887146 C-0.44862011 186.90023573 -9.38731057 186.25199924 -19.109375 181.82421875 C-23.9264252 179.80258343 -28.61055848 179.46832678 -33.76953125 178.9375 C-40.6013159 177.92434141 -47.04745232 175.61162522 -53.5625 173.375 C-54.5525 173.045 -55.5425 172.715 -56.5625 172.375 C-57.6875 165.75 -57.6875 165.75 -56.5625 162.375 C-55.45277438 150.29965463 -55.69027492 139.22488156 -63.5 129.4375 C-65.91530689 126.81938108 -68.44607701 125.11653049 -71.5625 123.375 C-71.5625 122.715 -71.5625 122.055 -71.5625 121.375 C-72.531875 121.230625 -73.50125 121.08625 -74.5 120.9375 C-77.5625 120.375 -77.5625 120.375 -78.5625 119.375 C-81.25904854 119.30180379 -83.92941458 119.28257463 -86.625 119.3125 C-87.38361328 119.31701172 -88.14222656 119.32152344 -88.92382812 119.32617188 C-90.80341871 119.3379932 -92.68296899 119.35592922 -94.5625 119.375 C-94.5625 120.035 -94.5625 120.695 -94.5625 121.375 C-96.2125 121.375 -97.8625 121.375 -99.5625 121.375 C-100.07083591 120.12836669 -100.56881145 118.87750613 -101.0625 117.625 C-101.48015625 116.58085937 -101.48015625 116.58085937 -101.90625 115.515625 C-102.5625 113.375 -102.5625 113.375 -102.5625 109.375 C-103.2225 109.375 -103.8825 109.375 -104.5625 109.375 C-104.61365609 102.49230157 -104.64842295 95.60965306 -104.67236328 88.72680664 C-104.68235497 86.39052498 -104.69595288 84.05425561 -104.71337891 81.71801758 C-104.87483409 59.49893456 -104.6104372 41.99209721 -89.5625 24.375 C-88.82 23.385 -88.0775 22.395 -87.3125 21.375 C-75.25783863 7.29897773 -51.69886069 5.56434161 -34.5625 2.375 C-33.61576416 2.18518555 -32.66902832 1.99537109 -31.69360352 1.79980469 C-21.18257122 -0.10155185 -10.64569037 -0.02082917 0 0 Z " fill="#FCFCFC" transform="translate(162.5625,189.625)"/>
<path d="M0 0 C14.67451129 -1.13653559 14.67451129 -1.13653559 20.59423828 3.22851562 C22.58251953 5.15039062 22.58251953 5.15039062 24.40673828 7.22851562 C25.06029297 7.93492187 25.71384766 8.64132812 26.38720703 9.36914062 C27.58327364 10.70084366 28.75735734 12.05293478 29.89892578 13.43164062 C31.37363403 15.25779418 31.37363403 15.25779418 33.10205078 16.83789062 C34.40673828 18.22851562 34.40673828 18.22851562 34.40673828 20.22851562 C35.09380859 20.25429688 35.78087891 20.28007812 36.48876953 20.30664062 C37.38982422 20.36335938 38.29087891 20.42007812 39.21923828 20.47851562 C40.55921875 20.548125 40.55921875 20.548125 41.92626953 20.61914062 C44.40673828 21.22851562 44.40673828 21.22851562 46.17236328 23.00585938 C48.20126018 26.6591579 48.62668928 30.07782737 48.40673828 34.22851562 C47.19805823 36.94804575 46.08965517 38.84278969 44.40673828 41.22851562 C43.23571103 43.07993139 42.06936846 44.93431527 40.90673828 46.79101562 C32.89530457 59.28748274 32.89530457 59.28748274 30.40673828 62.22851562 C29.74673828 62.22851562 29.08673828 62.22851562 28.40673828 62.22851562 C28.07673828 63.21851563 27.74673828 64.20851563 27.40673828 65.22851562 C25.40719082 65.27105919 23.40632192 65.26932345 21.40673828 65.22851562 C19.73207835 63.55385569 20.04319803 61.21138901 19.78173828 58.91601562 C19.01058868 54.08509601 19.01058868 54.08509601 15.21923828 50.97851562 C14.60177734 50.71554687 13.98431641 50.45257813 13.34814453 50.18164062 C8.92512466 48.01017815 5.54048861 43.76717679 2.65673828 39.85351562 C1.40955006 37.91881862 1.40955006 37.91881862 -1.59326172 37.22851562 C-2.08826172 31.78351563 -2.08826172 31.78351563 -2.59326172 26.22851562 C-4.07826172 26.72351563 -4.07826172 26.72351563 -5.59326172 27.22851562 C-5.64861084 28.27305908 -5.70395996 29.31760254 -5.76098633 30.39379883 C-5.96740488 34.26854421 -6.17928686 38.14297483 -6.39282227 42.01733398 C-6.48448391 43.69433641 -6.57466298 45.37142056 -6.66333008 47.04858398 C-6.79102282 49.45905195 -6.92404144 51.86917591 -7.05810547 54.27929688 C-7.11598488 55.4044445 -7.11598488 55.4044445 -7.17503357 56.55232239 C-7.35194632 59.65314356 -7.60578196 62.26607635 -8.59326172 65.22851562 C-8.82044668 67.79486423 -9.00934355 70.3452967 -9.15576172 72.91601562 C-9.22053711 73.96885742 -9.22053711 73.96885742 -9.28662109 75.04296875 C-9.39243531 76.77126769 -9.49332753 78.49986672 -9.59326172 80.22851562 C-10.29451172 80.25429688 -10.99576172 80.28007812 -11.71826172 80.30664062 C-19.69856731 80.78372411 -25.1868488 82.29741613 -31.28076172 87.54101562 C-37.18203692 94.39925437 -40.09284429 99.6238404 -40.90576172 108.72851562 C-40.1825413 116.82858427 -36.76956528 122.90248712 -30.59326172 128.22851562 C-27.68457575 129.88042075 -24.73441801 131.09616397 -21.59326172 132.22851562 C-20.93326172 132.55851563 -20.27326172 132.88851562 -19.59326172 133.22851562 C-18.05657306 133.45319393 -16.51358118 133.63648368 -14.96826172 133.79101562 C-14.15099609 133.87480469 -13.33373047 133.95859375 -12.49169922 134.04492188 C-11.86521484 134.10550781 -11.23873047 134.16609375 -10.59326172 134.22851562 C-10.59326172 135.87851562 -10.59326172 137.52851563 -10.59326172 139.22851562 C-35.34326172 139.22851562 -60.09326172 139.22851562 -85.59326172 139.22851562 C-86.59326172 110.22851562 -86.59326172 110.22851562 -85.59326172 99.22851562 C-85.46792552 96.27324241 -85.36644378 93.33225936 -85.31201172 90.37646484 C-85.29396484 89.56691849 -85.27591797 88.75737213 -85.25732422 87.92329407 C-85.21913557 86.19049449 -85.1826324 84.45765705 -85.14770508 82.72478867 C-85.09228137 79.98473623 -85.03188167 77.24483196 -84.97021484 74.50491333 C-84.81825428 67.7139423 -84.67358394 60.92282169 -84.53076172 54.13165283 C-84.40938995 48.36305637 -84.28428155 42.59456828 -84.15356445 36.82617569 C-84.09384892 34.12229125 -84.03979693 31.41832953 -83.98583984 28.71432495 C-83.94903211 27.07175021 -83.91193877 25.42918184 -83.87451172 23.78662109 C-83.85420898 22.6537693 -83.85420898 22.6537693 -83.83349609 21.49803162 C-83.70715761 16.34241151 -83.70715761 16.34241151 -82.59326172 15.22851562 C-80.55487221 15.0424018 -78.51194992 14.90507112 -76.46826172 14.79101562 C-71.56184405 14.44858298 -67.27771408 13.78999975 -62.59326172 12.22851562 C-57.6055129 10.74094142 -53.30274267 10.14999684 -48.09326172 9.97851562 C-42.59661367 9.66408872 -38.12604991 8.4780175 -33.09326172 6.35351562 C-22.42405838 1.94421003 -11.40886216 1.00533751 0 0 Z " fill="#FBFBFB" transform="translate(241.59326171875,373.771484375)"/>
<path d="M0 0 C4.92907941 0.02086711 9.85818116 0.02967885 14.78729248 0.03967285 C24.370682 0.06079619 33.95397611 0.09469362 43.53729248 0.1373291 C44.11198687 4.03978207 44.66376359 7.81078759 44.63494873 11.75842285 C44.63172607 12.54797363 44.62850342 13.33752441 44.62518311 14.15100098 C44.6168042 14.95086426 44.60842529 15.75072754 44.59979248 16.5748291 C44.59528076 17.4017627 44.59076904 18.22869629 44.58612061 19.08068848 C44.57445059 21.09960056 44.55651966 23.11847484 44.53729248 25.1373291 C43.76772217 25.43123535 42.99815186 25.7251416 42.20526123 26.0279541 C38.0909298 27.73874491 35.22861681 29.54752403 33.41619873 33.7154541 C32.33375253 37.92977797 32.16944203 41.80470282 32.16229248 46.1373291 C32.1255542 47.30908691 32.1255542 47.30908691 32.08807373 48.5045166 C32.06093046 53.87888436 33.00698682 56.86514762 36.53729248 61.1373291 C40.39236643 64.82479114 43.48400916 66.58896931 48.53729248 68.1373291 C49.20189793 75.20096075 49.60621169 82.21755789 49.64276123 89.3092041 C49.65733828 90.72978115 49.67231608 92.15035413 49.68768311 93.57092285 C49.7105586 95.73892934 49.7246904 97.905251 49.71234131 100.07336426 C49.67437652 109.2239044 50.13357623 116.0236778 56.53729248 123.1373291 C57.17795654 123.94686035 57.81862061 124.7563916 58.47869873 125.5904541 C59.01365967 126.18342285 59.54862061 126.7763916 60.09979248 127.3873291 C60.96990967 128.35412598 60.96990967 128.35412598 61.85760498 129.3404541 C64.03129347 131.66579528 66.25215824 133.92144136 68.53729248 136.1373291 C61.71395226 139.54899921 49.44974976 137.2148706 41.91229248 136.3873291 C40.64127686 136.24811035 39.37026123 136.1088916 38.06072998 135.9654541 C32.99934151 134.77585947 28.80108804 132.30946218 25.84979248 127.9498291 C19.26154639 116.25146905 20.05636566 100.36716849 19.30389404 87.36462402 C18.498707 73.57250569 17.165258 59.85725038 15.53729248 46.1373291 C15.42804443 45.1880957 15.31879639 44.2388623 15.20623779 43.26086426 C13.60052891 29.77043935 10.69863439 16.70810822 1.53729248 6.1373291 C-2.56176107 3.02234436 -6.26395174 2.59164444 -11.27520752 2.6373291 C-12.34206787 2.64482178 -12.34206787 2.64482178 -13.43048096 2.65246582 C-19.19498188 2.84408724 -23.46766246 3.88517719 -27.46270752 8.1373291 C-32.07755478 13.57141277 -32.19979578 18.50300162 -32.47442627 25.46936035 C-32.53266571 26.5944249 -32.59090515 27.71948944 -32.65090942 28.87864685 C-32.83603953 32.56840366 -32.99362551 36.25875954 -33.15020752 39.9498291 C-33.27223483 42.50293401 -33.39520995 45.05599379 -33.519104 47.60900879 C-34.41642924 66.78518984 -34.91244146 85.96779962 -35.08453369 105.16394043 C-35.10243454 106.63027672 -35.10243454 106.63027672 -35.12069702 108.12623596 C-35.14223446 109.93600065 -35.15599407 111.74588289 -35.16018677 113.55577087 C-35.2148768 117.7875791 -35.2845556 121.37313527 -37.46270752 125.1373291 C-40.19317627 126.1763916 -40.19317627 126.1763916 -43.65020752 126.7623291 C-45.53159424 127.1045752 -45.53159424 127.1045752 -47.45098877 127.45373535 C-48.43833008 127.62026611 -48.43833008 127.62026611 -49.44561768 127.79016113 C-52.75673043 128.36004764 -56.04418171 129.03583844 -59.33770752 129.6998291 C-60.58552002 129.94475098 -61.83333252 130.18967285 -63.11895752 130.4420166 C-65.73292423 130.9855751 -68.27083952 131.60162423 -70.83770752 132.3248291 C-75.12899023 133.28666833 -79.08918955 133.31955902 -83.46270752 133.1373291 C-82.38828029 129.91404741 -81.90190529 129.47859735 -79.33770752 127.5123291 C-74.36975684 123.4168491 -69.52247209 118.31662282 -67.46270752 112.1373291 C-67.23200753 109.05874442 -67.27292005 105.97370007 -67.27520752 102.8873291 C-67.27456299 101.99578125 -67.27391846 101.1042334 -67.27325439 100.18566895 C-67.32645198 93.43078469 -67.94070548 86.97409166 -69.02520752 80.3013916 C-69.45383569 77.20149147 -69.53822853 74.26201099 -69.46270752 71.1373291 C-67.84020811 70.29913753 -66.21462255 69.4669175 -64.58770752 68.6373291 C-63.23032471 67.94123535 -63.23032471 67.94123535 -61.84552002 67.2310791 C-59.46270752 66.1373291 -59.46270752 66.1373291 -57.46270752 66.1373291 C-57.17395752 65.5598291 -56.88520752 64.9823291 -56.58770752 64.3873291 C-55.90509786 63.02210978 -55.18922406 61.67199903 -54.41583252 60.3560791 C-52.24314504 55.29834759 -52.7040692 48.95383064 -54.11505127 43.7154541 C-55.98768734 39.43973569 -58.29978341 37.03643825 -62.38848877 34.82873535 C-65.30743209 33.85575425 -68.41679487 33.57245948 -71.46270752 33.1373291 C-71.46270752 22.9073291 -71.46270752 12.6773291 -71.46270752 2.1373291 C-47.57897555 0.19916044 -23.9456648 -0.11251852 0 0 Z " fill="#F9F9F9" transform="translate(187.46270751953125,516.8626708984375)"/>
<path d="M0 0 C0.70745361 0.25120605 1.41490723 0.50241211 2.14379883 0.76123047 C14.1274 5.30995615 31.14678827 12.67804862 39.859375 22.39892578 C42.22167406 24.51490839 44.56691896 24.24022289 47.61474609 24.13671875 C54.2674601 23.37259453 60.73918444 21.485031 67.20922852 19.80322266 C79.45733408 16.64568774 89.92511623 14.45271133 101.36328125 20.77734375 C106.59419492 24.24024848 111.22753266 28.31037881 115.90332031 32.47705078 C118.17487526 34.45435912 120.55532649 36.28358694 122.9375 38.125 C132.78830664 45.92555745 132.78830664 45.92555745 133.74609375 51.66015625 C134.15356632 58.66127588 131.92277156 62.56497298 127.4375 67.8125 C126.39511717 68.85998754 125.34357593 69.89840679 124.28515625 70.9296875 C115.76789511 79.32237069 112.0907633 85.91518465 110.4375 97.8125 C109.7775 97.8125 109.1175 97.8125 108.4375 97.8125 C108.69470674 99.39810393 108.96888799 100.98095924 109.25 102.5625 C109.47623047 103.88507813 109.47623047 103.88507813 109.70703125 105.234375 C110.49847116 108.02769234 111.64023478 109.56709778 113.4375 111.8125 C115.62650741 118.37952222 114.5315874 125.15073423 112.9921875 131.76171875 C112.53060543 134.30042013 112.25979244 136.70298803 112.0703125 139.26953125 C112.00569824 140.06746094 111.94108398 140.86539063 111.87451172 141.6875 C111.75205545 143.28358801 111.6512735 144.88152221 111.57470703 146.48046875 C111.24589444 150.51343804 110.77590483 153.02826828 107.7109375 155.81640625 C102.55059529 158.96310657 98.30537806 158.72180798 92.4375 157.8125 C89.3082461 156.76168881 86.39297502 155.53675488 83.421875 154.1015625 C76.4716128 151.0994859 70.06123742 150.51216419 62.59375 150.546875 C61.20271057 150.54400482 61.20271057 150.54400482 59.78356934 150.54107666 C57.82706429 150.5397218 55.87055003 150.54336918 53.9140625 150.55175781 C50.97374343 150.5623692 48.03404907 150.55188931 45.09375 150.5390625 C35.16977232 150.53251167 25.52481498 150.90127959 15.7019043 152.35327148 C9.94605303 153.16299074 4.70411233 153.80980943 -0.6875 151.4375 C-1.30625 150.90125 -1.925 150.365 -2.5625 149.8125 C-2.5625 149.1525 -2.5625 148.4925 -2.5625 147.8125 C2.84498187 145.56788488 7.94755733 144.23656671 13.71875 143.27734375 C16.13093617 142.86491537 18.49288924 142.36918893 20.875 141.8125 C22.39523493 141.47644807 23.91610037 141.14323905 25.4375 140.8125 C26.27023438 140.62429687 27.10296875 140.43609375 27.9609375 140.2421875 C43.86586964 137.07902172 58.8598069 138.67127055 74.46533203 142.37255859 C82.09780191 144.07517195 91.93882614 145.31205795 99.4375 142.8125 C100.42958401 140.55051919 100.42958401 140.55051919 101.0625 137.875 C102.39415635 132.89918731 102.39415635 132.89918731 103.4375 130.8125 C103.57107453 127.13920036 103.6046568 124.31397041 102.4375 120.8125 C96.30514481 114.92817058 90.51278908 115.00864484 82.28515625 114.88671875 C81.02988632 114.8494014 79.77461639 114.81208405 78.48130798 114.77363586 C75.16539977 114.67931448 71.85036097 114.60560587 68.53381348 114.54205322 C65.14121014 114.47190426 61.74940092 114.37440783 58.35742188 114.27929688 C51.71789181 114.09863696 45.07815358 113.9451417 38.4375 113.8125 C45.73705145 106.11891335 54.96413385 106.08714192 64.96313477 105.30444336 C67.23510644 105.12616865 69.50509592 104.93081146 71.77539062 104.73242188 C79.66898589 104.06320973 87.51005798 103.60950765 95.4375 103.8125 C95.2725 103.02875 95.1075 102.245 94.9375 101.4375 C94.02390177 94.81391281 93.64770323 88.99857111 96.4375 82.8125 C94.86548828 82.84730469 94.86548828 82.84730469 93.26171875 82.8828125 C91.88281963 82.90157303 90.5039128 82.91977293 89.125 82.9375 C88.08956055 82.96263672 88.08956055 82.96263672 87.03320312 82.98828125 C83.26614604 83.02467794 81.65318296 82.95628864 78.4375 80.8125 C78.4375 79.8225 78.4375 78.8325 78.4375 77.8125 C81.24765301 76.53626007 84.06043459 75.26644354 86.875 74 C87.65810547 73.64357422 88.44121094 73.28714844 89.24804688 72.91992188 C93.1934115 71.15019042 97.0358487 69.60263921 101.19140625 68.3984375 C105.76851903 66.927169 107.84853792 64.92058627 110.9375 61.25 C111.7728125 60.27933594 112.608125 59.30867188 113.46875 58.30859375 C115.43134055 55.99379318 115.43134055 55.99379318 116.4375 53.8125 C115.90511719 53.59851563 115.37273437 53.38453125 114.82421875 53.1640625 C111.537011 51.30256678 108.96999604 48.77310653 106.25 46.1875 C105.08894905 45.10242851 103.92748913 44.01779447 102.765625 42.93359375 C101.65620565 41.89327646 100.54682775 40.85291497 99.4375 39.8125 C91.21407519 31.8180613 91.21407519 31.8180613 80.5625 28.375 C66.39894953 28.87657599 46.99106906 34.39985732 36.4375 43.8125 C35.880625 44.555 35.32375 45.2975 34.75 46.0625 C34.316875 46.64 33.88375 47.2175 33.4375 47.8125 C32.7775 47.8125 32.1175 47.8125 31.4375 47.8125 C31.41171875 47.12285156 31.3859375 46.43320312 31.359375 45.72265625 C30.85005803 37.28420009 29.40094616 30.326284 23.1875 24.25 C13.2707865 16.29809329 -0.23831612 10.25667724 -12.9375 9.3125 C-17.56002382 9.95008949 -18.70459607 11.18218961 -21.5625 14.8125 C-22.366875 15.76125 -23.17125 16.71 -24 17.6875 C-31.74278224 29.14088076 -33.50727055 39.35822376 -31.5625 52.8125 C-33.8828125 53.44140625 -33.8828125 53.44140625 -36.5625 53.8125 C-37.51125 53.131875 -38.46 52.45125 -39.4375 51.75 C-42.42319924 49.45682111 -42.42319924 49.45682111 -45.86328125 50.16015625 C-50.90433885 51.81284228 -53.12756976 56.03871963 -55.875 60.3125 C-56.9115405 61.86539831 -57.94924856 63.4175181 -58.98828125 64.96875 C-59.43598877 65.65775391 -59.88369629 66.34675781 -60.3449707 67.05664062 C-61.5625 68.8125 -61.5625 68.8125 -63.5625 70.8125 C-64.27610214 73.03502318 -64.27610214 73.03502318 -64.5625 75.8125 C-64.789375 77.05 -65.01625 78.2875 -65.25 79.5625 C-65.2379134 82.75336353 -64.63627965 83.72721858 -62.5078125 86.1875 C-59.12669451 89.23752928 -55.69178881 92.06624482 -51.890625 94.578125 C-48.71069782 97.63000142 -48.05169745 100.62089715 -47 104.8125 C-45.72130738 109.80075673 -44.71385271 113.49747948 -40.5625 116.8125 C-37.62091986 117.70379838 -37.62091986 117.70379838 -34.3359375 118.04296875 C-33.1396875 118.20603516 -31.9434375 118.36910156 -30.7109375 118.53710938 C-29.46570313 118.68986328 -28.22046875 118.84261719 -26.9375 119 C-24.46580294 119.32421952 -21.9944289 119.65091428 -19.5234375 119.98046875 C-18.42821777 120.11735107 -17.33299805 120.2542334 -16.20458984 120.39526367 C-13.5625 120.8125 -13.5625 120.8125 -11.5625 121.8125 C-11.5625 122.4725 -11.5625 123.1325 -11.5625 123.8125 C-32.02099802 131.8125 -32.02099802 131.8125 -35.5625 131.8125 C-35.42061015 134.35444161 -35.27410845 136.89597993 -35.125 139.4375 C-35.08568359 140.15035156 -35.04636719 140.86320313 -35.00585938 141.59765625 C-34.96396484 142.30019531 -34.92207031 143.00273437 -34.87890625 143.7265625 C-34.82391968 144.6848999 -34.82391968 144.6848999 -34.76782227 145.66259766 C-34.50674127 148.39634235 -34.01396977 151.10368137 -33.5625 153.8125 C-27.6225 153.8125 -21.6825 153.8125 -15.5625 153.8125 C-15.5625 156.8125 -15.5625 156.8125 -17.015625 158.36328125 C-20.62198219 160.41536487 -24.2753045 161.15232088 -28.3125 162 C-29.0859375 162.17724609 -29.859375 162.35449219 -30.65625 162.53710938 C-35.72205828 163.63781772 -40.37964805 164.24440433 -45.5625 163.8125 C-49.58656835 161.14634772 -50.52434693 156.30041638 -51.5625 151.8125 C-52.13649238 147.48295751 -52.39689201 143.1752354 -52.5625 138.8125 C-52.60375 137.77738281 -52.645 136.74226562 -52.6875 135.67578125 C-52.78802064 130.97015859 -52.73534161 128.01160263 -50.5625 123.8125 C-50.73640038 114.42187963 -54.19295374 103.75683037 -60.5625 96.8125 C-62.06316169 95.49349736 -63.60724164 94.22251257 -65.1875 93 C-66.05890625 92.31421875 -66.9303125 91.6284375 -67.828125 90.921875 C-69.64101323 89.52336122 -71.46391506 88.13772644 -73.296875 86.765625 C-78.36585738 82.89640176 -82.21924873 79.83800326 -84.5625 73.8125 C-84.70118139 70.40490011 -84.09939507 68.45772786 -81.91333008 65.83056641 C-79.71224182 63.62204637 -77.44435972 61.5213439 -75.125 59.4375 C-74.33544922 58.70144531 -73.54589844 57.96539062 -72.73242188 57.20703125 C-66.8624913 51.8125 -66.8624913 51.8125 -64.5625 51.8125 C-64.5625 51.1525 -64.5625 50.4925 -64.5625 49.8125 C-63.1640625 48.40234375 -63.1640625 48.40234375 -61.1875 46.75 C-57.85595163 43.91640548 -54.56499608 41.04935108 -51.3125 38.125 C-50.50296875 37.39925781 -49.6934375 36.67351563 -48.859375 35.92578125 C-44.82735472 32.21604831 -41.38666417 28.42823561 -38.0625 24.0625 C-37.63815674 23.50900879 -37.21381348 22.95551758 -36.77661133 22.38525391 C-34.28313566 19.12160837 -31.83619409 15.8275855 -29.41796875 12.5078125 C-28.89074219 11.78948242 -28.36351562 11.07115234 -27.8203125 10.33105469 C-26.79290276 8.92858927 -25.77303356 7.52056071 -24.76171875 6.10644531 C-17.91579103 -3.21834075 -10.62405221 -3.82973719 0 0 Z " fill="#0D0D0D" transform="translate(121.5625,11.1875)"/>
<path d="M0 0 C0.97815674 0.00153076 1.95631348 0.00306152 2.96411133 0.00463867 C3.96611572 0.0055249 4.96812012 0.00641113 6.00048828 0.00732422 C12.8358563 0.11582212 18.65872649 1.09430731 25.15551758 3.29370117 C36.17292016 6.65576255 48.25873174 7.71655283 59.71411133 8.37963867 C58.22270707 9.90020447 56.81134271 11.30858497 55.08911133 12.56713867 C51.8819908 16.79470663 52.51744205 24.74602593 52.24926758 29.87670898 C52.21171356 30.58082916 52.17415955 31.28494934 52.13546753 32.01040649 C52.01283617 34.32604556 51.89452405 36.64187986 51.77661133 38.95776367 C51.69088643 40.60887319 51.60502744 42.25997575 51.51904297 43.91107178 C51.33890803 47.38421871 51.16102571 50.85747233 50.98461914 54.33081055 C50.8075378 57.81341025 50.62728196 61.29581822 50.44360352 64.77807617 C49.18513469 88.64014247 48.25389847 112.49021758 47.71411133 136.37963867 C43.82905151 137.20876526 40.29958869 137.49615752 36.31958008 137.47729492 C35.1175293 137.47407227 33.91547852 137.47084961 32.67700195 137.4675293 C31.43112305 137.45915039 30.18524414 137.45077148 28.90161133 137.44213867 C27.63639648 137.43762695 26.37118164 137.43311523 25.06762695 137.4284668 C21.94974022 137.41670119 18.83194999 137.4002614 15.71411133 137.37963867 C12.35861917 130.66865435 13.56531807 120.96232724 13.5454464 113.66181183 C13.53814851 111.52971714 13.52238247 109.39783568 13.50410461 107.26580811 C13.45229012 101.20889463 13.40388284 95.1521004 13.38818359 89.0949707 C13.33910209 72.6369832 13.15855077 56.70046061 9.23916626 40.6060791 C8.46011263 37.30258378 7.82204361 33.97358153 7.17607117 30.64190674 C6.7460921 28.53625202 6.2524412 26.45991387 5.71411133 24.37963867 C5.05411133 24.37963867 4.39411133 24.37963867 3.71411133 24.37963867 C3.61936523 26.06379883 3.61936523 26.06379883 3.52270508 27.78198242 C2.80428034 37.38421161 1.61001284 43.26824024 -5.28588867 50.37963867 C-6.10662618 51.54723548 -6.90297335 52.7328179 -7.66088867 53.94213867 C-8.19713867 54.74651367 -8.73338867 55.55088867 -9.28588867 56.37963867 C-9.61588867 56.37963867 -9.94588867 56.37963867 -10.28588867 56.37963867 C-10.30047119 55.54303711 -10.31505371 54.70643555 -10.33007812 53.84448242 C-10.39156086 50.70560424 -10.46579033 47.56734451 -10.54833984 44.42895508 C-10.59748513 42.41663556 -10.63225155 40.40398136 -10.66674805 38.39135742 C-10.90178631 29.88724578 -11.48911057 23.57480583 -16.28588867 16.37963867 C-15.97170392 12.44912331 -14.57183271 9.89411554 -12.34838867 6.69213867 C-11.82374023 5.92514648 -11.2990918 5.1581543 -10.75854492 4.36791992 C-7.4174481 -0.1430039 -5.35488748 0.08447386 0 0 Z " fill="#FCFCFC" transform="translate(101.285888671875,374.620361328125)"/>
<path d="M0 0 C1.29929443 -0.0218335 2.59858887 -0.04366699 3.93725586 -0.06616211 C7.45235601 0.29449901 8.87999192 0.72867141 11.28515625 3.27734375 C13.02290392 17.04710521 0.54133819 33.70823899 -5.71484375 45.27734375 C-6.12766602 46.04481934 -6.54048828 46.81229492 -6.96582031 47.60302734 C-15.38557546 63.16758765 -15.38557546 63.16758765 -21.71484375 65.27734375 C-25.93149538 65.57237134 -30.14791467 65.63310494 -34.37402344 65.68237305 C-35.7609961 65.70391291 -37.14783428 65.73797002 -38.53417969 65.78491211 C-51.5259469 66.22013941 -51.5259469 66.22013941 -55.9609375 62.51953125 C-57.48681641 60.86206055 -57.48681641 60.86206055 -58.71484375 59.27734375 C-59.32972656 58.55933594 -59.94460937 57.84132813 -60.578125 57.1015625 C-65.55406384 49.76507046 -69.99070686 42.13237221 -74.4375 34.46875 C-76.46294324 30.99390701 -78.52276432 27.54003612 -80.58984375 24.08984375 C-80.94675293 23.49083252 -81.30366211 22.89182129 -81.67138672 22.2746582 C-83.36039024 19.4568652 -85.09896453 16.72375792 -86.97265625 14.0234375 C-88.71484375 11.27734375 -88.71484375 11.27734375 -88.71484375 8.52734375 C-87.71484375 6.27734375 -87.71484375 6.27734375 -86.16259766 5.15600586 C-82.65741319 3.89776141 -79.22932276 3.97844211 -75.55078125 3.96875 C-73.87035663 3.94556914 -72.18993686 3.92203496 -70.50952148 3.89819336 C-69.6257785 3.88899872 -68.74203552 3.87980408 -67.83151245 3.87033081 C-51.84632755 3.69257728 -36.03085524 2.96992502 -20.13232422 1.29321289 C-13.41939507 0.60646062 -6.74599244 0.10457674 0 0 Z " fill="#070707" transform="translate(196.71484375,286.72265625)"/>
<path d="M0 0 C1.98 1.65 3.96 3.3 6 5 C5.67 5.845625 5.34 6.69125 5 7.5625 C3.93894046 11.20989216 3.84890987 14.22274664 4 18 C9.89327227 20.34059041 15.61976369 22.17922655 22 21 C24.84920053 19.12230858 24.84920053 19.12230858 27 17 C27.99 17 28.98 17 30 17 C32.93480509 22.6250431 34.19788134 27.66282127 33 34 C30.55957847 39.20623259 27.03386168 44.08565903 22 47 C14.78432836 45.78607045 7.71612411 41.99162612 2.65136719 36.77197266 C-3.27008485 26.83226738 -0.67593085 11.13014251 0 0 Z " fill="#F3F3F3" transform="translate(247,427)"/>
<path d="M0 0 C3.75 1.3125 3.75 1.3125 7 3 C10.30822885 4.08803971 13.64989583 5.04956803 17 6 C16.32902328 10.19360449 14.1441606 13.40334352 12 17 C7.45899751 17.20380313 2.91917334 17.32781306 -1.625 17.4375 C-2.91019531 17.49615234 -4.19539063 17.55480469 -5.51953125 17.61523438 C-14.77176288 17.78302096 -14.77176288 17.78302096 -18.27246094 15.55126953 C-19.96610075 13.71706447 -21.1286779 12.34141579 -22 10 C-21.54526365 5.73646859 -19.10368625 3.80088759 -16 1 C-11.3759581 -1.31202095 -5.04483791 -0.3234598 0 0 Z " fill="#F4F4F4" transform="translate(163,325)"/>
<path d="M0 0 C3.4375 2 3.4375 2 6 5 C6.8213258 9.24351666 7.02426215 11.38290733 4.7109375 15.03515625 C2.65715286 17.4986861 0.8876559 19.55617205 -2 21 C-5.41084821 21.2965955 -7.37987218 21.35902137 -10.375 19.625 C-10.91125 19.08875 -11.4475 18.5525 -12 18 C-12 17.34 -12 16.68 -12 16 C-12.66 16 -13.32 16 -14 16 C-14.64193947 12.31361493 -15.13497024 8.74677378 -15 5 C-10.89265067 0.20809245 -6.11986461 -0.62235911 0 0 Z " fill="#101010" transform="translate(224,251)"/>
<path d="M0 0 C3.55059892 0.64556344 5.16605178 1.96018661 7.578125 4.58984375 C9.74002442 8.11373981 9.46284308 11.53659247 8.75 15.5 C7.02270396 20.22733653 4.43313495 23.11549761 0.75 26.5 C-1.5625 26.0625 -1.5625 26.0625 -4.25 24.5 C-6.89726325 19.49501793 -7.88550246 14.1136051 -7.25 8.5 C-4.09988453 0.91108545 -4.09988453 0.91108545 0 0 Z " fill="#F1F1F1" transform="translate(234.25,548.5)"/>
<path d="M0 0 C2.51550428 2.85090485 2.96963997 4.71663974 3.375 8.5 C2.96942028 12.28541073 2.37361222 14.05344689 0 17 C-2.50000561 18.90789902 -4.36200254 19.86912873 -7.4375 20.5 C-10.44818952 19.91254839 -12.60186293 18.82421957 -14.88671875 16.7578125 C-16.83434644 13.68261089 -16.33022154 10.85505493 -15.75 7.37890625 C-14.64290583 3.86734193 -12.95524948 2.13052869 -10 0 C-6.59079988 -1.53963877 -3.53672056 -1.05349123 0 0 Z " fill="#F2F2F2" transform="translate(123,560)"/>
<path d="M0 0 C4.60353655 0.09637033 7.20178509 1.34603606 10.75 4.375 C12.93038095 7.64557143 13.38246755 8.58019469 12.75 12.375 C10.27552136 15.25074545 7.9057398 17.27117347 4.75 19.375 C1.13942949 19.27998499 -0.17186519 18.44223228 -2.9375 16.0625 C-6.23776775 12.22705369 -7.35523106 10.90085036 -7 5.75 C-5.94341474 0.99536633 -4.65404934 0.0791505 0 0 Z " fill="#0D0D0D" transform="translate(87.25,252.625)"/>
<path d="M0 0 C-0.33 1.32 -0.66 2.64 -1 4 C-26.98103983 8.34816216 -26.98103983 8.34816216 -33 7 C-36 3.84449244 -36 3.84449244 -36 1 C-11.22373113 -0.19388403 -11.22373113 -0.19388403 0 0 Z " fill="#E8E8E8" transform="translate(175,299)"/>
<path d="M0 0 C2 3 2 3 2 5 C2.86753906 5.12503906 3.73507813 5.25007813 4.62890625 5.37890625 C7.88492535 5.97879853 10.80791164 6.87013717 13.9375 7.9375 C18.74213389 9.46649448 23.23798201 10.3572516 28.25 10.875 C33.14215243 11.40851582 37.03263033 12.28088122 41.6030426 14.21420288 C52.70292594 18.82988541 63.21253424 18.69943298 75.0625 18.375 C77.00842147 18.34481054 78.95438898 18.31745086 80.90039062 18.29296875 C85.60142789 18.22780398 90.30018348 18.12479938 95 18 C92.602557 20.397443 92.05569835 20.25805264 88.78491211 20.29052734 C87.47731178 20.3096669 87.47731178 20.3096669 86.14329529 20.32919312 C85.19753128 20.33141876 84.25176727 20.33364441 83.27734375 20.3359375 C81.81537315 20.3459227 81.81537315 20.3459227 80.3238678 20.35610962 C78.25507497 20.36625233 76.18624931 20.37092614 74.11743164 20.37060547 C70.97420912 20.37494927 67.83242425 20.41117005 64.68945312 20.44921875 C62.67708811 20.45509269 60.66471646 20.45905822 58.65234375 20.4609375 C57.72074936 20.47530853 56.78915497 20.48967957 55.82933044 20.50448608 C49.68954458 20.4622174 42.59059174 19.59059174 38 15 C36.17290686 14.66657101 34.33576136 14.38789548 32.49609375 14.1328125 C31.36236328 13.96910156 30.22863281 13.80539062 29.06054688 13.63671875 C26.67306995 13.29951177 24.28505546 12.96608597 21.89648438 12.63671875 C15.53860912 11.7115457 9.90437971 10.5544288 4 8 C4 7.34 4 6.68 4 6 C2.68 5.67 1.36 5.34 0 5 C0 3.35 0 1.7 0 0 Z " fill="#808080" transform="translate(104,357)"/>
<path d="M0 0 C0.33 0.66 0.66 1.32 1 2 C0.36516562 3.67904959 -0.30677796 5.34420248 -1 7 C-4.16317281 19.55534338 -3.45147437 32.96889173 -3.625 45.8125 C-3.66325005 48.16212274 -3.70230567 50.51173251 -3.7421875 52.86132812 C-3.8374197 58.57410228 -3.92268156 64.28695677 -4 70 C-3.34 70 -2.68 70 -2 70 C-1.72736328 71.28197266 -1.72736328 71.28197266 -1.44921875 72.58984375 C-1.19785156 73.69457031 -0.94648437 74.79929687 -0.6875 75.9375 C-0.44386719 77.03964844 -0.20023438 78.14179688 0.05078125 79.27734375 C0.36402344 80.17582031 0.67726563 81.07429688 1 82 C1.99 82.33 2.98 82.66 4 83 C2.02 83.495 2.02 83.495 0 84 C0 83.34 0 82.68 0 82 C-0.66 82 -1.32 82 -2 82 C-5.03377108 73.97118393 -5.45359466 66.55664749 -5.43359375 58.03125 C-5.4388356 56.71515747 -5.44407745 55.39906494 -5.44947815 54.04309082 C-5.45835329 51.27293212 -5.45605006 48.50306259 -5.44604492 45.73291016 C-5.43454904 42.20937229 -5.4548033 38.68683579 -5.48396206 35.16342926 C-5.5068722 31.76515256 -5.49985138 28.36710172 -5.49609375 24.96875 C-5.50732773 23.71743286 -5.51856171 22.46611572 -5.53013611 21.17687988 C-5.47536456 14.23926795 -5.29794639 5.29794639 0 0 Z " fill="#656565" transform="translate(62,229)"/>
<path d="M0 0 C1.98 1.65 3.96 3.3 6 5 C5.69320312 5.74507813 5.38640625 6.49015625 5.0703125 7.2578125 C3.59358289 12.42097661 3.27620076 17.53442588 2.875 22.875 C2.78863281 23.94492187 2.70226562 25.01484375 2.61328125 26.1171875 C2.40217102 28.74433699 2.19795597 31.37183211 2 34 C1.67 34 1.34 34 1 34 C0.67 22.78 0.34 11.56 0 0 Z " fill="#E0E0E0" transform="translate(247,427)"/>
<path d="M0 0 C1.77131561 0.30975468 3.54203778 0.62290425 5.3125 0.9375 C6.79169922 1.19853516 6.79169922 1.19853516 8.30078125 1.46484375 C11 2 11 2 14 3 C15.39655459 3.08589303 16.79685777 3.11772715 18.19604492 3.11352539 C19.45701241 3.11341209 19.45701241 3.11341209 20.74345398 3.11329651 C21.64666885 3.10813522 22.54988373 3.10297394 23.48046875 3.09765625 C24.40845779 3.0962413 25.33644684 3.09482635 26.29255676 3.09336853 C29.25757058 3.08776937 32.22250899 3.07521704 35.1875 3.0625 C37.19726453 3.05748489 39.20703025 3.052922 41.21679688 3.04882812 C46.14456032 3.03780021 51.07226737 3.02053617 56 3 C53.602557 5.397443 53.05569835 5.25805264 49.78491211 5.29052734 C48.47731178 5.3096669 48.47731178 5.3096669 47.14329529 5.32919312 C46.19753128 5.33141876 45.25176727 5.33364441 44.27734375 5.3359375 C42.81537315 5.3459227 42.81537315 5.3459227 41.3238678 5.35610962 C39.25507497 5.36625233 37.18624931 5.37092614 35.11743164 5.37060547 C31.97420912 5.37494927 28.83242425 5.41117005 25.68945312 5.44921875 C23.67708811 5.45509269 21.66471646 5.45905822 19.65234375 5.4609375 C18.72074936 5.47530853 17.78915497 5.48967957 16.82933044 5.50448608 C10.39607049 5.46019701 5.6592316 4.04852435 0 1 C0 0.67 0 0.34 0 0 Z " fill="#595959" transform="translate(143,372)"/>
<path d="M0 0 C4.54565914 -0.17483304 8.59905536 0.05526716 13.0625 0.9375 C22.90786461 2.73335564 33.01934399 2.68794594 43 3 C42.34 3.33 41.68 3.66 41 4 C41 4.66 41 5.32 41 6 C37.37 6 33.74 6 30 6 C30 5.67 30 5.34 30 5 C28.95658447 4.87153687 28.95658447 4.87153687 27.89208984 4.74047852 C24.71956307 4.34913151 21.54728106 3.95583358 18.375 3.5625 C16.73337891 3.36043945 16.73337891 3.36043945 15.05859375 3.15429688 C13.46337891 2.95610352 13.46337891 2.95610352 11.8359375 2.75390625 C10.86188965 2.63345947 9.8878418 2.5130127 8.88427734 2.38891602 C5.91056125 1.98794008 2.95711535 1.50819427 0 1 C0 0.67 0 0.34 0 0 Z " fill="#717171" transform="translate(130,379)"/>
<path d="M0 0 C0.671875 1.6796875 0.671875 1.6796875 1 4 C-0.109375 6.4453125 -0.109375 6.4453125 -1.75 9.125 C-4.32465796 13.58022609 -5.95475045 17.67908104 -7.27734375 22.62890625 C-8.40818617 26.33929192 -10.16800498 29.58869893 -12 33 C-14.36233461 25.84871496 -9.13464696 17.40378373 -6 11 C-4.04951538 7.30510161 -2.04347859 3.64420349 0 0 Z " fill="#5F5F5F" transform="translate(62,205)"/>
<path d="M0 0 C0.66 0.33 1.32 0.66 2 1 C-2.72387866 7.56094259 -8.31786923 11.34656207 -16 14 C-18.3671875 13.65625 -18.3671875 13.65625 -20 13 C-19.09121094 12.5978125 -19.09121094 12.5978125 -18.1640625 12.1875 C-11.3049572 8.97954921 -5.73647262 4.91872014 0 0 Z " fill="#7A7A7A" transform="translate(241,356)"/>
<path d="M0 0 C8.25 0.33 16.5 0.66 25 1 C25 1.66 25 2.32 25 3 C22.03 3.66 19.06 4.32 16 5 C16 4.34 16 3.68 16 3 C10.72 2.34 5.44 1.68 0 1 C0 0.67 0 0.34 0 0 Z " fill="#A1A1A1" transform="translate(94,130)"/>
<path d="M0 0 C0.66 0.33 1.32 0.66 2 1 C0.3705398 5.63769442 0.3705398 5.63769442 -1.40625 7.375 C-3.30222152 9.30814744 -4.40984958 11.30485462 -5.6875 13.6875 C-6.34298828 14.89986328 -6.34298828 14.89986328 -7.01171875 16.13671875 C-7.50091797 17.05904297 -7.50091797 17.05904297 -8 18 C-8.70703125 16.3828125 -8.70703125 16.3828125 -9 14 C-7.63671875 11.0546875 -7.63671875 11.0546875 -5.6875 7.875 C-5.05199219 6.82054687 -4.41648437 5.76609375 -3.76171875 4.6796875 C-2 2 -2 2 0 0 Z " fill="#777777" transform="translate(72,187)"/>
<path d="M0 0 C0.66 0.99 1.32 1.98 2 3 C1.44570312 3.48210938 0.89140625 3.96421875 0.3203125 4.4609375 C-0.40414062 5.09257813 -1.12859375 5.72421875 -1.875 6.375 C-2.59429687 7.00148438 -3.31359375 7.62796875 -4.0546875 8.2734375 C-5.4076598 9.47426834 -6.7208345 10.7208345 -8 12 C-6.35 12.33 -4.7 12.66 -3 13 C-3 13.33 -3 13.66 -3 14 C-5.97 14 -8.94 14 -12 14 C-10.91704299 10.75112896 -10.27052751 10.17151002 -7.6875 8.125 C-4.70189864 5.66771493 -2.30145186 3.12997454 0 0 Z " fill="#C7C7C7" transform="translate(116,636)"/>
<path d="M0 0 C0.33 0.66 0.66 1.32 1 2 C0.34152374 3.66991953 -0.32693574 5.33590664 -1 7 C-1.42943688 9.26117071 -1.80272928 11.53358565 -2.125 13.8125 C-2.29257812 14.97394531 -2.46015625 16.13539063 -2.6328125 17.33203125 C-2.75398438 18.21246094 -2.87515625 19.09289062 -3 20 C-3.66 19.67 -4.32 19.34 -5 19 C-5.50724362 12.15221113 -3.99098933 7.16215874 -1 1 C-0.67 0.67 -0.34 0.34 0 0 Z " fill="#7A7A7A" transform="translate(62,229)"/>
<path d="M0 0 C1.67542976 0.28604898 3.34385343 0.61781233 5 1 C5 2.65 5 4.3 5 6 C3.02 6.33 1.04 6.66 -1 7 C-1.04254356 5.00045254 -1.04080783 2.99958364 -1 1 C-0.67 0.67 -0.34 0.34 0 0 Z " fill="#181818" transform="translate(165,433)"/>
<path d="M0 0 C2 3 2 3 2 5 C2.825 5.0825 3.65 5.165 4.5 5.25 C8.76753921 6.16447269 12.19236894 7.92223178 16 10 C12.69564916 11.12377697 10.9493138 10.89554742 7.75 9.5625 C7.04359375 9.27503906 6.3371875 8.98757813 5.609375 8.69140625 C5.07828125 8.46324219 4.5471875 8.23507812 4 8 C4 7.34 4 6.68 4 6 C2.68 5.67 1.36 5.34 0 5 C0 3.35 0 1.7 0 0 Z " fill="#666666" transform="translate(104,357)"/>
<path d="M0 0 C1.65 0.33 3.3 0.66 5 1 C5 2.65 5 4.3 5 6 C3.125 6.625 3.125 6.625 1 7 C0.34 6.34 -0.32 5.68 -1 5 C-0.625 2.375 -0.625 2.375 0 0 Z " fill="#1E1E1E" transform="translate(165,456)"/>
<path d="M0 0 C0.33 0 0.66 0 1 0 C1 2.64 1 5.28 1 8 C-0.0209375 8.2784375 -0.0209375 8.2784375 -1.0625 8.5625 C-5.18689821 10.58082253 -7.90378945 13.66287393 -11 17 C-11.33 16.34 -11.66 15.68 -12 15 C-9.60690073 11.83769026 -7.43734561 9.04092395 -4 7 C-2.68 7 -1.36 7 0 7 C0 4.69 0 2.38 0 0 Z " fill="#3D3D3D" transform="translate(232,535)"/>
<path d="M0 0 C0.66 0.33 1.32 0.66 2 1 C1.38511719 1.56654297 1.38511719 1.56654297 0.7578125 2.14453125 C-4.232315 7.24210169 -5.26768913 12.01779464 -6 19 C-6.33 19 -6.66 19 -7 19 C-7.46747982 12.42931136 -7.47616445 8.24350693 -3 3 C-1.25 1.125 -1.25 1.125 0 0 Z " fill="#3D3D3D" transform="translate(162,522)"/>
<path d="M0 0 C3.96 0 7.92 0 12 0 C11.01 0.495 11.01 0.495 10 1 C10 1.66 10 2.32 10 3 C6.37 3 2.74 3 -1 3 C-0.67 2.01 -0.34 1.02 0 0 Z " fill="#545454" transform="translate(161,382)"/>
<path d="M0 0 C2.0625 0.4375 2.0625 0.4375 4 1 C4 2.65 4 4.3 4 6 C2.35 6.33 0.7 6.66 -1 7 C-1.04254356 5.00045254 -1.04080783 2.99958364 -1 1 C-0.67 0.67 -0.34 0.34 0 0 Z " fill="#2A2A2A" transform="translate(166,412)"/>
<path d="M0 0 C0.71484375 1.578125 0.71484375 1.578125 1 4 C-0.05709499 6.38494456 -1.1317889 8.51234067 -2.4375 10.75 C-2.77587891 11.35199219 -3.11425781 11.95398438 -3.46289062 12.57421875 C-4.29768265 14.05568065 -5.14741494 15.52870608 -6 17 C-6.71484375 15.421875 -6.71484375 15.421875 -7 13 C-5.94290501 10.61505544 -4.8682111 8.48765933 -3.5625 6.25 C-3.22412109 5.64800781 -2.88574219 5.04601562 -2.53710938 4.42578125 C-1.70231735 2.94431935 -0.85258506 1.47129392 0 0 Z " fill="#686868" transform="translate(62,205)"/>
<path d="M0 0 C1.2065625 0.0309375 1.2065625 0.0309375 2.4375 0.0625 C3 2 3 2 3.4375 4.0625 C2.4375 5.0625 2.4375 5.0625 -0.125 5.125 C-1.3315625 5.0940625 -1.3315625 5.0940625 -2.5625 5.0625 C-3.125 3.125 -3.125 3.125 -3.5625 1.0625 C-2.5625 0.0625 -2.5625 0.0625 0 0 Z " fill="#1C1C1C" transform="translate(165.5625,481.9375)"/>
<path d="M0 0 C1.56306619 2.67954204 2.29561987 5.18306947 2.9375 8.1875 C3.288125 9.445625 3.63875 10.70375 4 12 C4.99 12.33 5.98 12.66 7 13 C5.68 13.33 4.36 13.66 3 14 C3 13.34 3 12.68 3 12 C2.34 12 1.68 12 1 12 C-0.3271261 8.0186217 -0.06915913 4.14954773 0 0 Z " fill="#8A8A8A" transform="translate(59,299)"/>
<path d="M0 0 C0.66 0.33 1.32 0.66 2 1 C0.73147606 2.60599349 -0.539911 4.20972575 -1.8125 5.8125 C-2.87404297 7.15248047 -2.87404297 7.15248047 -3.95703125 8.51953125 C-5.56411377 10.47076911 -7.17040423 12.26274976 -9 14 C-8.73087196 10.05278869 -8.54393391 8.47594217 -5.5 5.8125 C-4.675 5.214375 -3.85 4.61625 -3 4 C-2.67 3.01 -2.34 2.02 -2 1 C-1.34 0.67 -0.68 0.34 0 0 Z " fill="#747474" transform="translate(72,213)"/>
<path d="M0 0 C0 0.33 0 0.66 0 1 C-2.43578787 1.53030068 -4.87305975 2.04952312 -7.3125 2.5625 C-8.00279297 2.71396484 -8.69308594 2.86542969 -9.40429688 3.02148438 C-12.75544066 3.71761569 -14.69534072 4.10155309 -18 3 C-11.92122066 -0.24201565 -6.81598387 -0.33278764 0 0 Z " fill="#585858" transform="translate(114,195)"/>
<path d="M0 0 C0.99 0.33 1.98 0.66 3 1 C5.22574335 1.22451458 7.45581519 1.40782878 9.6875 1.5625 C10.86699219 1.64628906 12.04648438 1.73007812 13.26171875 1.81640625 C14.61716797 1.90728516 14.61716797 1.90728516 16 2 C16 2.33 16 2.66 16 3 C14.86820313 3.06058594 13.73640625 3.12117188 12.5703125 3.18359375 C11.08852855 3.26799917 9.6067584 3.35264717 8.125 3.4375 C7.00544922 3.49647461 7.00544922 3.49647461 5.86328125 3.55664062 C1.80013136 3.71573624 1.80013136 3.71573624 -2 5 C-1.34 3.35 -0.68 1.7 0 0 Z " fill="#3A3A3A" transform="translate(156,386)"/>
<path d="M0 0 C1.40403242 4.21209727 -0.16298908 6.05382839 -2 10 C-2.67276716 11.6642135 -3.34206835 13.32986582 -4 15 C-5.3480932 11.339671 -4.6336844 9.33449773 -3.125 5.8125 C-2.75632813 4.93207031 -2.38765625 4.05164063 -2.0078125 3.14453125 C-1 1 -1 1 0 0 Z " fill="#333333" transform="translate(63,222)"/>
<path d="M0 0 C3.63 0.66 7.26 1.32 11 2 C11 2.66 11 3.32 11 4 C11.66 4.33 12.32 4.66 13 5 C8.15340923 4.40895235 4.39251833 3.02055843 0 1 C0 0.67 0 0.34 0 0 Z " fill="#404040" transform="translate(143,372)"/>
<path d="M0 0 C0 0.66 0 1.32 0 2 C-2.88211302 2.96070434 -4.69850044 3.10581883 -7.6875 3.0625 C-8.89986328 3.04896484 -8.89986328 3.04896484 -10.13671875 3.03515625 C-11.05904297 3.01775391 -11.05904297 3.01775391 -12 3 C-8.2391768 -0.7608232 -5.0273023 -0.25136512 0 0 Z " fill="#4D4D4D" transform="translate(130,516)"/>
<path d="M0 0 C1.65 0 3.3 0 5 0 C4.67 1.65 4.34 3.3 4 5 C2.68 5 1.36 5 0 5 C0 3.35 0 1.7 0 0 Z " fill="#141414" transform="translate(166,396)"/>
<path d="M0 0 C-2.64 0.99 -5.28 1.98 -8 3 C-8 3.99 -8 4.98 -8 6 C-9.32 5.34 -10.64 4.68 -12 4 C-12 3.34 -12 2.68 -12 2 C-10.75579353 1.4654744 -9.50429064 0.94791389 -8.25 0.4375 C-7.55390625 0.14746094 -6.8578125 -0.14257812 -6.140625 -0.44140625 C-4 -1 -4 -1 0 0 Z " fill="#6A6A6A" transform="translate(131,157)"/>
<path d="M0 0 C5.28 0 10.56 0 16 0 C12 3 12 3 10 3 C10 2.34 10 1.68 10 1 C6.7 1 3.4 1 0 1 C0 0.67 0 0.34 0 0 Z " fill="#F1F1F1" transform="translate(154,518)"/>
<path d="M0 0 C3.48331435 3.01887244 4.79157144 5.56909529 6 10 C5.34 10 4.68 10 4 10 C1.1605948 6.32547562 0 4.73113419 0 0 Z " fill="#757575" transform="translate(263,192)"/>
<path d="M0 0 C0.99 0.33 1.98 0.66 3 1 C1.71937515 2.7074998 0.38232443 4.37373596 -1 6 C-1.66 6 -2.32 6 -3 6 C-3.33 6.66 -3.66 7.32 -4 8 C-4.33 7.34 -4.66 6.68 -5 6 C-4.34 5.01 -3.68 4.02 -3 3 C-2.34 3 -1.68 3 -1 3 C-0.67 2.01 -0.34 1.02 0 0 Z " fill="#222222" transform="translate(93,636)"/>
<path d="M0 0 C0.78375 0.04125 1.5675 0.0825 2.375 0.125 C-0.24014317 2.24538635 -2.82137616 4.25591744 -5.625 6.125 C-4.86443086 2.32215429 -4.27658992 0.20364714 0 0 Z " fill="#D1D1D1" transform="translate(234.625,548.875)"/>
<path d="M0 0 C0.66 0.33 1.32 0.66 2 1 C-0.625 5.875 -0.625 5.875 -4 7 C-3.67 5.35 -3.34 3.7 -3 2 C-2.01 2 -1.02 2 0 2 C0 1.34 0 0.68 0 0 Z " fill="#E7E7E7" transform="translate(254,345)"/>
<path d="M0 0 C0.66 0.33 1.32 0.66 2 1 C1.1875 3.4375 1.1875 3.4375 0 6 C-0.99 6.33 -1.98 6.66 -3 7 C-2.25 2.25 -2.25 2.25 0 0 Z " fill="#5B5B5B" transform="translate(72,187)"/>
<path d="M0 0 C2 3 2 3 2 6 C2.66 6.33 3.32 6.66 4 7 C2.02 7.99 2.02 7.99 0 9 C0 6.03 0 3.06 0 0 Z " fill="#464646" transform="translate(153,50)"/>
<path d="M0 0 C0.66 0 1.32 0 2 0 C1.60196439 2.88575819 1.20990931 3.82189513 -1.0625 5.75 C-1.701875 6.1625 -2.34125 6.575 -3 7 C-3.66 6.67 -4.32 6.34 -5 6 C-3.38405168 3.95880212 -1.7143618 1.95927063 0 0 Z " fill="#3D3D3D" transform="translate(244,354)"/>
<path d="M0 0 C0.33 0 0.66 0 1 0 C1 1.98 1 3.96 1 6 C-0.98 6.66 -2.96 7.32 -5 8 C-4.67 7.34 -4.34 6.68 -4 6 C-3.34 6 -2.68 6 -2 6 C-1.34 4.02 -0.68 2.04 0 0 Z " fill="#545454" transform="translate(223,148)"/>
</svg>
