<?xml version="1.0" encoding="UTF-8"?>
<svg version="1.1" xmlns="http://www.w3.org/2000/svg" width="367" height="101">
<path d="M0 0 C17.16 0 34.32 0 52 0 C52 0.33 52 0.66 52 1 C50.35 1 48.7 1 47 1 C46.9175 1.763125 46.835 2.52625 46.75 3.3125 C46.0766671 6.62305345 45.12145512 9.31706408 43.875 12.4375 C40.87169449 20.59246096 43.34040207 26.42077165 46.16015625 34.328125 C47 37 47 37 47 40 C47.66 40 48.32 40 49 40 C49.21398438 38.83597656 49.42796875 37.67195313 49.6484375 36.47265625 C51.25649453 29.2363996 54.0290984 22.36345057 56.625 15.4375 C57.14636926 14.03340201 57.66720694 12.62910651 58.1875 11.22460938 C59.4522133 7.81410757 60.72409774 4.40633417 62 1 C59.69 1 57.38 1 55 1 C55 0.67 55 0.34 55 0 C60.28 0 65.56 0 71 0 C71 0.33 71 0.66 71 1 C69.02 1 67.04 1 65 1 C64.87262451 1.54825439 64.74524902 2.09650879 64.61401367 2.66137695 C61.98363356 13.10079305 58.04768399 23.10657545 54.3125 33.1875 C53.603094 35.11247488 52.89410601 37.03760386 52.18554688 38.96289062 C50.46184895 43.64371897 48.73249554 48.32242113 47 53 C45.68 53 44.36 53 43 53 C40.69 46.73 38.38 40.46 36 34 C34.33957556 36.49063665 33.44675832 38.25176398 32.4921875 41.01171875 C32.22792969 41.76904297 31.96367188 42.52636719 31.69140625 43.30664062 C31.42199219 44.09232422 31.15257813 44.87800781 30.875 45.6875 C30.59785156 46.48478516 30.32070313 47.28207031 30.03515625 48.10351562 C29.3529846 50.06769952 28.67598902 52.03367973 28 54 C26.12492371 53.7795105 26.12492371 53.7795105 24 53 C22.88032532 51.07766724 22.88032532 51.07766724 22.0012207 48.52783203 C21.66439774 47.57659454 21.32757477 46.62535706 20.98054504 45.64529419 C20.63247299 44.60992523 20.28440094 43.57455627 19.92578125 42.5078125 C19.3718293 40.92249222 19.3718293 40.92249222 18.8066864 39.30514526 C17.62669465 35.9168348 16.46944758 32.52123964 15.3125 29.125 C14.52166085 26.84193522 13.72936123 24.55937577 12.93554688 22.27734375 C10.59292462 15.52878783 8.25902343 8.77707029 6 2 C3.03 1.505 3.03 1.505 0 1 C0 0.67 0 0.34 0 0 Z M15 1 C16.34491066 5.10966272 17.69607812 9.2172021 19.05273438 13.32299805 C19.51208379 14.7160041 19.96980712 16.10954757 20.42578125 17.50366211 C22.93709113 25.17802686 25.53512514 32.68976168 29 40 C31.63473499 36.04789751 34.26504844 31.87938992 33.81201172 26.95776367 C32.40224967 21.11586713 30.51706336 15.54953185 28.375 9.9375 C27.88773438 8.6390918 27.88773438 8.6390918 27.390625 7.31445312 C26.59910589 5.20761548 25.80031846 3.10351081 25 1 C21.7 1 18.4 1 15 1 Z M34 1 C34.45375 2.5675 34.9075 4.135 35.375 5.75 C35.63023438 6.63171875 35.88546875 7.5134375 36.1484375 8.421875 C36.9209934 10.76080572 37.83625676 12.83442562 39 15 C40.62276158 12.56585763 41.61744792 10.68680554 42.625 8 C42.88539062 7.319375 43.14578125 6.63875 43.4140625 5.9375 C44.14473587 3.85876694 44.14473587 3.85876694 44 1 C40.7 1 37.4 1 34 1 Z " fill="#020202" transform="translate(4,20)"/>
<path d="M0 0 C4.95 0 9.9 0 15 0 C15 17.49 15 34.98 15 53 C16.65 53 18.3 53 20 53 C20 53.33 20 53.66 20 54 C19.04746338 54.03758423 19.04746338 54.03758423 18.07568359 54.07592773 C15.17528458 54.19256789 12.27515651 54.31498393 9.375 54.4375 C8.37597656 54.47681641 7.37695312 54.51613281 6.34765625 54.55664062 C2.30431728 54.73069164 -1.56930812 54.92293878 -5.55859375 55.63671875 C-8 56 -8 56 -10.4375 54.375 C-11.7059375 53.694375 -11.7059375 53.694375 -13 53 C-14.69142824 53.74813172 -16.38114168 54.50465607 -18.02734375 55.34765625 C-21.70834096 56.56493652 -25.51764404 55.51776818 -29 54 C-31.50031654 50.24952518 -31.53603554 48.44143734 -31 44 C-27.73749273 39.64999031 -24.11254625 37.70418208 -19 36 C-17.02 36 -15.04 36 -13 36 C-13.495 29.565 -13.495 29.565 -14 23 C-16.64 23 -19.28 23 -22 23 C-21.67 25.31 -21.34 27.62 -21 30 C-22.8125 30.625 -22.8125 30.625 -25 31 C-25.99 30.34 -26.98 29.68 -28 29 C-27.68595544 26.09508781 -27.45815425 24.457066 -25.35546875 22.359375 C-22.290108 20.59031108 -20.08731515 20.56657493 -16.5625 20.5625 C-15.45003906 20.54316406 -14.33757812 20.52382813 -13.19140625 20.50390625 C-9.25903766 21.11518019 -7.78985005 22.1889443 -5 25 C-4.34057617 27.93261719 -4.34057617 27.93261719 -4.29296875 31.296875 C-4.26396484 32.50214844 -4.23496094 33.70742188 -4.20507812 34.94921875 C-4.19927734 36.20347656 -4.19347656 37.45773438 -4.1875 38.75 C-4.16236328 40.01972656 -4.13722656 41.28945313 -4.11132812 42.59765625 C-4.05241035 45.73208201 -4.0161625 48.86510958 -4 52 C-3.01 52 -2.02 52 -1 52 C-0.67 51.01 -0.34 50.02 0 49 C0.66 49 1.32 49 2 49 C1.67 50.32 1.34 51.64 1 53 C2.65 53 4.3 53 6 53 C6 36.17 6 19.34 6 2 C4.02 1.67 2.04 1.34 0 1 C0 0.67 0 0.34 0 0 Z M-20.8125 39.5 C-23.09812959 42.11214811 -23.41243495 42.7647051 -23.625 46.0625 C-23.43521042 50.11190761 -23.43521042 50.11190761 -20.5 52 C-19.2625 52.495 -19.2625 52.495 -18 53 C-15.2788824 51.74770272 -15.2788824 51.74770272 -13 49 C-12.54748043 45.29998705 -12.71216559 41.70986572 -13 38 C-16.32329416 37.86595116 -17.80411625 37.89552867 -20.8125 39.5 Z " fill="#010101" transform="translate(263,20)"/>
<path d="M0 0 C0.66 -0.66 1.32 -1.32 2 -2 C2.99 -2 3.98 -2 5 -2 C5 3.28 5 8.56 5 14 C4.01 14 3.02 14 2 14 C1.75765625 13.38511719 1.5153125 12.77023438 1.265625 12.13671875 C-1.05822038 5.96106801 -1.05822038 5.96106801 -6 2 C-11.59883451 0.52106258 -14.97296999 1.14149274 -20 4 C-22.09412983 6.53040688 -22.00966098 7.76330603 -21.875 11.0625 C-20.80464382 14.6558386 -20.18238887 15.09851024 -17 17 C-13.27605265 18.38284459 -9.45732963 19.47197417 -5.64257812 20.57421875 C-0.5944249 22.13843524 2.64500229 23.69474282 6 28 C8.14788905 32.91410979 8.42997794 37.69474293 6.875 42.8125 C4.9649323 47.54179425 2.68492257 50.74710886 -1.4375 53.8125 C-8.03792337 56.01264112 -15.8244694 56.28058454 -22.3125 53.5 C-23.199375 53.005 -24.08625 52.51 -25 52 C-25.66 52.99 -26.32 53.98 -27 55 C-27.99 55 -28.98 55 -30 55 C-30 49.39 -30 43.78 -30 38 C-29.01 38 -28.02 38 -27 38 C-26.5875 39.051875 -26.175 40.10375 -25.75 41.1875 C-23.60467187 46.16304974 -21.12507603 49.89405967 -16 52 C-11.79634117 52.57903708 -8.08385951 52.42411894 -4.125 50.875 C-1.36072528 48.43593407 -0.20805841 46.48994652 1 43 C0.99256026 38.25413264 0.99256026 38.25413264 -1.53515625 34.47265625 C-5.60882891 32.03878209 -10.11136466 30.82845612 -14.625 29.42578125 C-20.3651982 27.52928467 -24.63712516 25.11469865 -28.375 20.1875 C-29.74838311 15.38065912 -29.49561307 11.3564147 -27.8125 6.75 C-21.42429464 -2.94244951 -10.23601913 -4.30990279 0 0 Z " fill="#010101" transform="translate(223,19)"/>
<path d="M0 0 C4.95 0 9.9 0 15 0 C15 16.83 15 33.66 15 51 C16.98 51 18.96 51 21 51 C21 51.66 21 52.32 21 53 C15.66666667 53 10.33333333 53 5 53 C4.01 53.495 4.01 53.495 3 54 C-1.65048294 54.56735892 -5.09730577 54.4598631 -9.3125 52.3125 C-13.53866595 48.67603163 -16.63777527 45.45004207 -17.23828125 39.73046875 C-17.40818638 33.90898235 -17.01050544 30.53820353 -13 26 C-8.38876755 21.28396681 -5.41144484 20.10176897 1 20 C2.65 20.66 4.3 21.32 6 22 C6.33 15.07 6.66 8.14 7 1 C4.69 1 2.38 1 0 1 C0 0.67 0 0.34 0 0 Z M-7 26 C-8.47121178 32.66057695 -9.07859004 41.37879596 -7 48 C-4.62546438 51.04638578 -4.62546438 51.04638578 -2 53 C1.98619937 51.67126688 4.496257 50.41705806 7 47 C7.62628362 43.68046739 7.60362136 40.43203269 7.5625 37.0625 C7.58634766 36.16853516 7.61019531 35.27457031 7.63476562 34.35351562 C7.62451628 29.75155802 7.50083339 27.65240139 4.625 23.90625 C2.17431169 21.85899902 2.17431169 21.85899902 -0.5625 21.4375 C-3.825648 22.19053415 -4.90545017 23.40551647 -7 26 Z " fill="#010101" transform="translate(332,20)"/>
<path d="M0 0 C4.62 0 9.24 0 14 0 C14 16.83 14 33.66 14 51 C15.98 51 17.96 51 20 51 C20.33 51.66 20.66 52.32 21 53 C15.33333333 53 9.66666667 53 4 53 C3.01 53.495 3.01 53.495 2 54 C-2.73327315 54.67480473 -6.74472321 54.62293706 -10.8125 51.9375 C-14.84761665 48.58741478 -17.42109119 45.03107914 -18.4140625 39.83203125 C-18.81111872 33.76125056 -16.92827326 29.56920206 -13 25 C-8.83642854 21.4700155 -5.4579457 20.19847075 0 20 C1.65 20.66 3.3 21.32 5 22 C5.33 15.07 5.66 8.14 6 1 C4.02 1 2.04 1 0 1 C0 0.67 0 0.34 0 0 Z M-7 25 C-8.80739357 28.61478714 -8.22756068 32.83232546 -8.25 36.8125 C-8.270625 37.71548828 -8.29125 38.61847656 -8.3125 39.54882812 C-8.34161971 44.50281828 -8.3020033 48.0117613 -5 52 C-3.22286468 53.25695267 -3.22286468 53.25695267 -1 53 C3.21273204 50.7182607 3.21273204 50.7182607 6 47 C6.3173081 43.73654645 6.32419393 40.46449132 6.375 37.1875 C6.41238281 36.28451172 6.44976562 35.38152344 6.48828125 34.45117188 C6.54973533 29.80456038 6.52967308 27.69716903 3.640625 23.89453125 C1.17022549 21.84172811 1.17022549 21.84172811 -1.625 21.5 C-4.38876501 22.08184526 -5.29695585 22.78604261 -7 25 Z " fill="#010101" transform="translate(153,20)"/>
<path d="M0 0 C1.1240625 -0.01675781 2.248125 -0.03351562 3.40625 -0.05078125 C6.78116656 0.34551577 8.12809573 0.92381339 10.5 3.3125 C11.5592918 6.49037541 11.61458939 8.73838943 11.59765625 12.07421875 C11.59443359 13.19248047 11.59121094 14.31074219 11.58789062 15.46289062 C11.57951172 16.63013672 11.57113281 17.79738281 11.5625 19 C11.55798828 20.17884766 11.55347656 21.35769531 11.54882812 22.57226562 C11.53703273 25.48572789 11.5205727 28.39908863 11.5 31.3125 C13.48 30.3225 15.46 29.3325 17.5 28.3125 C17.19108003 31.29872637 16.66753715 32.17368351 14.3125 34.125 C10.84495329 35.58907528 9.0861052 35.32596451 5.5 34.3125 C4.51 33.6525 3.52 32.9925 2.5 32.3125 C0.79417361 33.06700013 -0.91002976 33.82628537 -2.59375 34.62890625 C-5.78398268 35.77294461 -8.30120769 35.17371331 -11.5 34.3125 C-14.14764845 32.63565598 -14.45477045 31.46111139 -15.375 28.4375 C-15.52900367 24.58740836 -14.92303291 23.28266938 -12.5 20.3125 C-7.63001329 16.13822568 -3.69309134 15.68783887 2.5 15.3125 C2.17 11.3525 1.84 7.3925 1.5 3.3125 C-0.81 2.9825 -3.12 2.6525 -5.5 2.3125 C-5.17 4.2925 -4.84 6.2725 -4.5 8.3125 C-6.15 8.9725 -7.8 9.6325 -9.5 10.3125 C-10.49 8.9925 -11.48 7.6725 -12.5 6.3125 C-11.57569496 4.00173741 -10.92641856 2.59644694 -8.828125 1.19921875 C-5.80099976 0.04627004 -3.23442611 0.01112761 0 0 Z M-6.5 20.3125 C-7.4567832 23.82070505 -7.85265975 26.19574413 -6.75 29.6875 C-5.50281178 31.622197 -5.50281178 31.622197 -2.5 32.3125 C0.27260935 31.38257868 0.27260935 31.38257868 2.5 29.3125 C3.10481772 26.34868482 3.10481772 26.34868482 2.8125 23.125 C2.76738281 22.03832031 2.72226562 20.95164062 2.67578125 19.83203125 C2.58876953 18.58486328 2.58876953 18.58486328 2.5 17.3125 C-1.8339145 17.3125 -3.23106489 17.57366247 -6.5 20.3125 Z " fill="#020202" transform="translate(298.5,40.6875)"/>
<path d="M0 0 C5.49609142 2.23914835 7.76554849 6.11676765 10.1484375 11.34375 C11.92708106 16.89181248 10.8841227 21.69104801 8.3125 26.8125 C5.69238204 30.42401394 4.07313868 32.14857333 0 34 C-5.24946548 34.75886461 -9.53098112 34.68010133 -14.375 32.4375 C-19.1766025 27.97886911 -22.70685884 23.79856193 -23.125 17.04296875 C-22.8391202 12.3706207 -21.53680317 8.63618075 -18.30859375 5.19921875 C-12.32905698 -0.0313155 -7.9416685 -0.75367109 0 0 Z M-10.8125 3.6875 C-14.39515493 10.66424907 -13.94425482 20.65824707 -12.375 28.1875 C-11.21400893 31.225325 -11.21400893 31.225325 -8.1875 32.625 C-4.98745446 33.26751766 -4.98745446 33.26751766 -2.1875 31.8125 C0.25611213 30.11290965 0.25611213 30.11290965 1 27 C1.22608152 23.87893507 1.18515133 20.75342942 1.1875 17.625 C1.19974609 16.77421875 1.21199219 15.9234375 1.22460938 15.046875 C1.2349 10.64248792 1.23497375 6.93669061 -1 3 C-4.49595793 1.25202104 -7.86719328 0.94531788 -10.8125 3.6875 Z " fill="#010101" transform="translate(96,40)"/>
<path d="M0 0 C2.1875 -0.01171875 2.1875 -0.01171875 6 0.36328125 C6.33 0.69328125 6.66 1.02328125 7 1.36328125 C8.2375 1.34265625 9.475 1.32203125 10.75 1.30078125 C15.09288848 1.25416706 18.14639079 1.99023739 21.6875 4.61328125 C23.48588762 7.01113141 24.12665949 9.51036893 25 12.36328125 C25.5878125 13.38421875 25.5878125 13.38421875 26.1875 14.42578125 C27.30489915 17.09034846 26.83797964 18.63984741 26 21.36328125 C24 24.36328125 24 24.36328125 21.875 25.05078125 C21.25625 25.15390625 20.6375 25.25703125 20 25.36328125 C19.67 27.67328125 19.34 29.98328125 19 32.36328125 C16.66666667 32.02994792 14.33333333 31.69661458 12 31.36328125 C10.76378906 31.18667969 9.52757812 31.01007812 8.25390625 30.828125 C4.8359375 30.33984375 1.41796875 29.8515625 -2 29.36328125 C-0.35810704 27.37627703 0.49390896 26.44289108 3.0859375 26.03515625 C4.21902344 26.07382812 4.21902344 26.07382812 5.375 26.11328125 C6.16519531 26.1390625 6.95539063 26.16484375 7.76953125 26.19140625 C10.24095064 26.38184837 12.59887937 26.74363722 15 27.36328125 C15 26.37328125 15 25.38328125 15 24.36328125 C13.39658445 24.0263534 11.79223445 23.69387032 10.1875 23.36328125 C9.29417969 23.17765625 8.40085937 22.99203125 7.48046875 22.80078125 C4.92739307 22.27643282 4.92739307 22.27643282 2 22.36328125 C2.33 21.37328125 2.66 20.38328125 3 19.36328125 C9.74233419 19.23417272 16.30386804 19.56544425 23 20.36328125 C23 18.71328125 23 17.06328125 23 15.36328125 C22.34 15.36328125 21.68 15.36328125 21 15.36328125 C21 14.70328125 21 14.04328125 21 13.36328125 C19.02 13.36328125 17.04 13.36328125 15 13.36328125 C15.33 12.37328125 15.66 11.38328125 16 10.36328125 C16.99 10.36328125 17.98 10.36328125 19 10.36328125 C18.505 8.87828125 18.505 8.87828125 18 7.36328125 C13.46859347 6.42947164 13.46859347 6.42947164 9 7.36328125 C8.67 8.35328125 8.34 9.34328125 8 10.36328125 C7.34 10.36328125 6.68 10.36328125 6 10.36328125 C6 8.38328125 6 6.40328125 6 4.36328125 C3.69 4.36328125 1.38 4.36328125 -1 4.36328125 C-1.66 7.00328125 -2.32 9.64328125 -3 12.36328125 C-4.65 12.03328125 -6.3 11.70328125 -8 11.36328125 C-8.33 13.01328125 -8.66 14.66328125 -9 16.36328125 C-7.68 17.35328125 -6.36 18.34328125 -5 19.36328125 C-5.75 27.11328125 -5.75 27.11328125 -8 29.36328125 C-8.12375 27.44515625 -8.12375 27.44515625 -8.25 25.48828125 C-8.46046943 23.29147651 -8.46046943 23.29147651 -9 21.36328125 C-10.31647119 20.66390593 -11.65022151 19.99598992 -13 19.36328125 C-14.0625 16.11328125 -14.0625 16.11328125 -14 12.36328125 C-12.07609057 8.82957004 -9.87312609 6.65432328 -6 5.36328125 C-5.443125 4.51765625 -4.88625 3.67203125 -4.3125 2.80078125 C-2 0.36328125 -2 0.36328125 0 0 Z " fill="#090707" transform="translate(294,5.63671875)"/>
<path d="M0 0 C1.5 1.8125 1.5 1.8125 1.875 4.375 C1.5 6.8125 1.5 6.8125 -0.5 8.8125 C-3.5 9.125 -3.5 9.125 -6.5 8.8125 C-8.5 5.8125 -8.5 5.8125 -8.125 3.625 C-7.815625 2.7278125 -7.815625 2.7278125 -7.5 1.8125 C-10.10780794 2.17219765 -11.27024994 2.56992197 -13.10473633 4.50683594 C-14.81196783 7.32802479 -14.92440486 9.17012278 -15.01171875 12.453125 C-15.04716797 13.52304687 -15.08261719 14.59296875 -15.11914062 15.6953125 C-15.15297852 17.36207031 -15.15297852 17.36207031 -15.1875 19.0625 C-15.22166016 20.18914063 -15.25582031 21.31578125 -15.29101562 22.4765625 C-15.37343014 25.25510901 -15.44260298 28.03334252 -15.5 30.8125 C-13.52 30.8125 -11.54 30.8125 -9.5 30.8125 C-9.5 31.1425 -9.5 31.4725 -9.5 31.8125 C-15.77 31.8125 -22.04 31.8125 -28.5 31.8125 C-28.5 31.4825 -28.5 31.1525 -28.5 30.8125 C-26.85 30.8125 -25.2 30.8125 -23.5 30.8125 C-23.5 20.9125 -23.5 11.0125 -23.5 0.8125 C-25.48 0.8125 -27.46 0.8125 -29.5 0.8125 C-29.5 0.4825 -29.5 0.1525 -29.5 -0.1875 C-24.16666667 -0.1875 -18.83333333 -0.1875 -13.5 -0.1875 C-8.87150265 -1.73033245 -4.42091508 -2.09993466 0 0 Z " fill="#010101" transform="translate(134.5,42.1875)"/>
<path d="M0 0 C1.65 0.99 3.3 1.98 5 3 C4.25 10.75 4.25 10.75 2 13 C1.87625 11.081875 1.87625 11.081875 1.75 9.125 C1.54130069 6.94666582 1.54130069 6.94666582 1 5 C-0.92064793 3.4100567 -0.92064793 3.4100567 -3 3 C-2.01 2.01 -1.02 1.02 0 0 Z " fill="#040203" transform="translate(284,22)"/>
<path d="M0 0 C0.80050781 0.03480469 1.60101563 0.06960937 2.42578125 0.10546875 C3.63814453 0.14607422 3.63814453 0.14607422 4.875 0.1875 C5.48988281 0.22230469 6.10476563 0.25710937 6.73828125 0.29296875 C6.07828125 0.95296875 5.41828125 1.61296875 4.73828125 2.29296875 C6.05828125 2.95296875 7.37828125 3.61296875 8.73828125 4.29296875 C1.80828125 3.79796875 1.80828125 3.79796875 -5.26171875 3.29296875 C-2.26171875 0.29296875 -2.26171875 0.29296875 0 0 Z " fill="#070305" transform="translate(297.26171875,31.70703125)"/>
<path d="M0 0 C2.25 -0.3125 2.25 -0.3125 5 0 C7.3125 2.5 7.3125 2.5 9 5 C5.30581799 5 3.22163822 3.71820705 0 2 C0 1.34 0 0.68 0 0 Z " fill="#0F0B0C" transform="translate(295,6)"/>
<path d="M0 0 C3.63 0 7.26 0 11 0 C10.67 0.99 10.34 1.98 10 3 C6.7 2.34 3.4 1.68 0 1 C0 0.67 0 0.34 0 0 Z " fill="#171011" transform="translate(298,33)"/>
<path d="M0 0 C2.31 0.33 4.62 0.66 7 1 C7 1.99 7 2.98 7 4 C4.97954558 3.39816251 2.97888961 2.72693904 1 2 C0.67 1.34 0.34 0.68 0 0 Z " fill="#120E0D" transform="translate(306,26)"/>
</svg>
